<svg width="35" height="34" viewBox="0 0 35 34" fill="none" xmlns="http://www.w3.org/2000/svg">
<path d="M23.9286 14.6125C23.9286 19.5746 19.8906 23.6125 14.9286 23.6125C9.96651 23.6125 5.92856 19.5746 5.92856 14.6125C5.92856 9.65047 9.96651 5.61252 14.9286 5.61252C19.8906 5.61252 23.9286 9.65047 23.9286 14.6125ZM34.2143 31.3268C34.2143 30.6438 33.933 29.9808 33.471 29.5188L26.5803 22.6282C28.2076 20.2777 29.0714 17.4652 29.0714 14.6125C29.0714 6.79779 22.7433 0.469666 14.9286 0.469666C7.11383 0.469666 0.785706 6.79779 0.785706 14.6125C0.785706 22.4273 7.11383 28.7554 14.9286 28.7554C17.7812 28.7554 20.5937 27.8915 22.9442 26.2643L29.8348 33.1348C30.2969 33.617 30.9598 33.8982 31.6429 33.8982C33.0491 33.8982 34.2143 32.7331 34.2143 31.3268Z" fill="white"/>
</svg>
